<?xml version="1.0" encoding="UTF-8" standalone="no"?>
<svg
   xmlns:dc="http://purl.org/dc/elements/1.1/"
   xmlns:cc="http://creativecommons.org/ns#"
   xmlns:rdf="http://www.w3.org/1999/02/22-rdf-syntax-ns#"
   xmlns:svg="http://www.w3.org/2000/svg"
   xmlns="http://www.w3.org/2000/svg"
   xmlns:sodipodi="http://sodipodi.sourceforge.net/DTD/sodipodi-0.dtd"
   xmlns:inkscape="http://www.inkscape.org/namespaces/inkscape"
   version="1.1"
   id="Layer_1"
   x="0px"
   y="0px"
   width="100%"
   viewBox="0 0 1000 426"
   enable-background="new 0 0 1000 426"
   xml:space="preserve"
   sodipodi:docname="logo-texto2.svg"
   inkscape:version="0.92.4 (5da689c313, 2019-01-14)"><metadata
   id="metadata187"><rdf:RDF><cc:Work
       rdf:about=""><dc:format>image/svg+xml</dc:format><dc:type
         rdf:resource="http://purl.org/dc/dcmitype/StillImage" /><dc:title></dc:title></cc:Work></rdf:RDF></metadata><defs
   id="defs185" /><sodipodi:namedview
   pagecolor="#ffffff"
   bordercolor="#666666"
   borderopacity="1"
   objecttolerance="10"
   gridtolerance="10"
   guidetolerance="10"
   inkscape:pageopacity="0"
   inkscape:pageshadow="2"
   inkscape:window-width="1920"
   inkscape:window-height="1017"
   id="namedview183"
   showgrid="false"
   inkscape:zoom="0.76199998"
   inkscape:cx="672.04723"
   inkscape:cy="159.6125"
   inkscape:window-x="-8"
   inkscape:window-y="-8"
   inkscape:window-maximized="1"
   inkscape:current-layer="Layer_1" />














<path
   fill="#EB2629"
   opacity="1.000000"
   stroke="none"
   d=" M588.969299,216.267609   C591.096130,228.781143 593.039917,240.905136 597.135864,253.591415   C602.234558,240.048233 605.950378,227.159134 608.891602,214.055145   C609.290833,212.276230 609.725952,210.604202 610.492981,208.986038   C611.593689,206.663956 612.837341,204.663132 615.972534,204.971237   C618.803223,205.249390 619.993347,206.948303 621.146118,209.337967   C623.195740,213.586823 623.367615,218.245621 623.806030,222.634918   C625.365723,238.249573 629.331604,253.321045 633.307983,268.382538   C634.322998,272.227173 633.651917,274.582123 630.312134,275.771576   C626.229370,277.225739 623.945740,274.431885 623.121216,271.002686   C621.189026,262.966492 619.620544,254.840195 618.025635,246.726624   C617.096924,242.001785 616.401428,237.231110 615.333801,230.896072   C612.924255,237.933350 611.073914,243.686142 608.984253,249.350662   C606.465881,256.177063 605.300964,263.436462 602.060425,270.044403   C600.640564,272.939636 598.713135,273.971405 595.598267,274.080994   C592.369934,274.194611 591.718933,271.920837 591.021423,269.833923   C587.632446,259.694977 585.369324,249.254684 583.011047,238.843719   C582.547913,236.799088 582.185242,234.731689 581.701050,232.296539   C578.144104,245.154129 575.522766,257.826050 573.115723,270.529175   C572.409485,274.256317 570.576538,275.123444 567.346680,275.015442   C563.698608,274.893433 563.024536,272.188477 563.080261,269.574646   C563.233887,262.377319 564.964050,255.388367 567.064392,248.558914   C570.552185,237.217651 572.107849,225.456299 575.005798,213.994370   C575.202271,213.217117 575.588684,212.480423 575.725159,211.696701   C576.409241,207.767807 579.115234,205.269913 582.649475,205.233948   C585.968994,205.200180 586.857971,208.870667 587.795471,211.627548   C588.259888,212.993179 587.905518,214.607849 588.969299,216.267609  z"
   id="path30" />

<path
   fill="#EB2629"
   opacity="1.000000"
   stroke="none"
   d=" M768.438965,233.602051   C772.515259,230.670563 775.105774,225.880936 781.150391,225.886810   C785.642578,225.891174 788.525452,227.562622 790.368408,231.524109   C793.308472,228.438782 796.935913,226.458603 801.093323,226.065674   C810.400513,225.186020 813.750244,230.024200 814.996277,240.759125   C816.164612,250.824463 817.169617,260.911530 818.537903,270.949310   C818.995483,274.306274 817.096191,275.346832 814.727844,275.901306   C812.040527,276.530426 809.499207,275.658142 809.090332,272.593506   C808.203064,265.944092 807.551636,259.256134 807.042603,252.565796   C806.694580,247.991684 805.943298,243.509918 804.581604,239.163193   C803.745361,236.493835 802.215576,235.084747 799.073364,236.935944   C790.704895,241.865997 790.196899,241.119598 791.736084,251.809830   C792.763000,258.942627 793.545410,266.237396 793.034119,273.547180   C792.838318,276.346069 791.562134,278.118347 788.828186,277.895264   C786.427917,277.699432 783.915649,277.015228 783.979309,273.561218   C784.180481,262.664062 781.648560,251.924820 782.020691,241.016327   C782.085327,239.121841 781.787231,237.053268 780.231140,236.309906   C778.738525,235.596909 777.904785,237.760605 776.848877,238.700974   C775.110962,240.248703 773.521423,241.964737 771.890808,243.630798   C769.292053,246.286148 767.656311,249.200775 767.926086,253.204239   C768.284546,258.523560 766.923523,263.877930 767.999390,269.217834   C768.660583,272.499664 766.899292,274.523407 764.017578,274.820129   C761.229126,275.107239 759.347961,273.551697 758.609375,270.348236   C758.232300,268.712921 758.041138,267.139648 758.026611,265.539246   C757.926270,254.524399 759.522461,243.513824 758.045349,232.487503   C757.854553,231.063278 758.047119,229.484894 758.471436,228.103683   C759.223389,225.656189 759.822083,222.450714 763.353943,223.107864   C766.578796,223.707947 768.329163,226.063522 768.010437,229.584854   C767.935669,230.411163 767.992615,231.249390 767.952637,232.505524   C767.767883,233.171127 767.693726,233.292236 767.693726,233.292236   C767.750854,233.757889 767.932251,233.821213 768.438965,233.602051  z"
   id="path34" />
<path
   d="M 485.17383 202.00781 C 482.24013 201.94281 481.47823 204.194 480.58398 206.72656 C 479.99112 208.40558 479.91174 209.98767 480.05273 211.55664 C 480.59821 217.62633 478.81454 223.46378 478.88086 229.72461 C 470.4194 223.29317 456.9057 225.9341 450.84766 234.25 C 446.9346 239.62145 446.05811 245.43135 445.67383 251.7168 C 445.16095 260.10509 448.38269 266.85602 455.04883 271.27734 C 461.388 275.48184 468.81125 275.42807 475.85352 272.51172 C 478.16803 271.55322 479.79715 270.65268 481.67578 273.05859 C 482.86664 274.58368 484.7305 274.50378 486.08594 273.30078 C 487.48166 272.06204 489.44867 271.0351 488.88477 268.47266 C 487.51007 262.22571 487.13867 255.88327 486.94336 249.49023 C 486.5845 237.74525 489.08807 226.1949 489 213.99414 C 489 211.67531 488.98407 209.84546 489.00391 208.01562 C 489.03195 205.42526 489.59164 202.50259 485.79102 202.05273 C 485.57546 202.02722 485.36941 202.01215 485.17383 202.00781 z M 467.16406 235.20508 C 473.61958 235.08037 479.69113 239.71248 478 247.17969 L 478 252.64453 C 477.99997 260.17717 475.99023 263.34772 470.24219 264.88281 C 464.85718 266.32095 458.83893 263.62073 455.75195 258.1875 C 451.86749 251.35059 454.35086 239.32571 462.72461 236.07617 C 464.16459 235.51737 465.67433 235.23386 467.16406 235.20508 z "
   id="path36"
   style="fill:#eb2629;fill-opacity:1" />


<path
   d="M 736.3457 225.74805 C 734.28278 225.75279 732.18931 226.04127 730.12109 226.54492 C 718.71423 229.32274 714.00781 238.80862 713.0918 248.99609 C 712.30902 257.70155 712.90521 266.1553 721.80664 271.37109 C 725.83264 273.7301 730.12824 274.01523 734.53711 274.21094 C 741.85712 274.53583 748.5885 272.672 754.2832 268.07812 C 756.80866 266.04089 757.79352 262.88336 755.40039 260.01367 C 753.00543 257.14184 750.96021 258.44101 748.5957 260.75195 C 743.86359 265.37665 737.89801 266.21689 731.14844 265.00391 C 728.46582 264.80923 727.034 263.03952 725.17383 262.08984 C 723.85962 261.41885 722.91516 260.77246 723.04102 259.18359 C 723.18756 257.33423 724.86584 258.22379 725.76367 257.70703 C 732.80878 253.65204 740.56281 250.9342 747.30664 246.29883 C 753.13757 242.29096 754.04578 235.34929 748.95508 230.55859 C 745.27848 227.09863 740.88413 225.73761 736.3457 225.74805 z M 735.47461 234.82227 C 737.03858 234.8985 738.71181 235.28158 740.51172 235.95703 C 741.67017 236.39174 742.8313 236.69519 742.85352 238.03125 C 742.87103 239.08501 741.8902 239.57256 740.94336 240.03516 C 737.72406 241.60809 734.55939 243.29568 730.99805 245 C 729.47809 245.69635 728.39978 246.55106 727.17578 246.91602 C 725.52814 247.4073 723.70099 249.81258 722.5293 248.51562 C 721.04822 246.87616 722.82471 244.51857 723.8125 242.79688 C 727.06692 237.1245 730.7827 234.59356 735.47461 234.82227 z "
   id="path42"
   style="fill:#eb2629;fill-opacity:1" />

<path
   d="M 514.04492 225.87891 C 505.69222 226.00218 498.2378 230.75162 494.96484 239.16602 C 492.76483 242.26298 492.71976 245.74565 492.29883 248.79297 C 491.29761 256.04158 492.02707 263.02377 497.99414 268.63281 C 502.65387 273.013 508.31107 274.1864 514.11719 274.43164 C 521.34228 274.73682 528.26111 272.92386 533.66211 267.71875 C 535.96899 265.49557 537.38104 262.85175 534.27344 259.63867 C 530.94397 256.1962 529.41858 259.13525 527.51367 260.99805 C 521.98859 266.40124 507.09628 268.47678 502.2793 259.33008 C 502.39087 259.20673 502.47882 259.0386 502.61719 258.9668 C 510.24774 255.00641 517.82526 250.93828 525.53711 247.14258 C 530.55756 244.67154 531.43195 240.51804 530.99414 235.61914 C 530.6106 231.32733 527.69 229.46173 524.06641 227.91797 C 520.71973 226.49215 517.31337 225.83067 514.04492 225.87891 z M 514.78711 234.97656 C 516.44717 235.0325 518.20861 235.38437 520.0332 236.05664 C 520.94067 236.39101 521.79279 236.87814 522.66992 237.29492 C 521.93384 238.14543 521.34015 239.21254 520.4375 239.8125 C 514.78571 243.56914 508.36295 245.82082 501.98438 248.90625 C 502.30049 240.04603 507.59349 234.73416 514.78711 234.97656 z "
   id="path46"
   style="fill:#eb2629;fill-opacity:1" />

<path
   d="M 980.84375 226.03906 C 975.41367 226.23168 969.8349 228.57989 964.25 233.25391 C 960.32874 237.01118 958.21698 241.57864 957.44727 246.28516 C 956.22565 253.75549 956.17407 261.54111 960.75586 268.09766 C 965.69324 275.16296 975.64392 277.15976 984.99609 272.50781 C 987.13873 271.44202 988.9046 269.74326 990.97656 273.17773 C 992.16272 275.14374 995.33429 275.96622 997.6543 274.55859 C 1000.051 273.1044 999.53021 270.17273 998.57617 268.24805 C 993.39233 257.79031 994.56268 246.92577 995.9082 235.97852 C 996.22424 233.40668 996.26807 231.26387 993.17773 229.41797 C 989.20146 227.04287 985.06714 225.88925 980.84375 226.03906 z M 981.48828 234.81055 C 982.76863 234.74587 983.97858 235.00619 985.01367 235.79102 C 986.9715 237.27548 986.16437 239.96349 985.39844 242.23047 C 984.63483 244.49069 984.66602 246.77197 985.96875 249.36523 C 986.42542 253.39079 986.34265 257.0564 986.45117 260.57422 C 986.55078 263.80423 982.26556 265.51538 978.87109 265.93555 C 970.81049 266.93341 964.98016 260.98004 966.19141 252.17969 C 967.16144 245.13197 970.05121 238.76323 977.54492 235.78711 C 978.85852 235.26542 980.20793 234.87523 981.48828 234.81055 z "
   id="path50"
   style="fill:#eb2629;fill-opacity:1" />
<path
   d="M 658.25586 225.92969 C 653.8957 225.9373 649.57054 227.44969 645.14648 229.97656 C 634.69397 237.48735 632.59521 248.0249 634.20312 259.4707 C 634.7937 263.67514 636.10077 268.10937 640.20898 271.12891 C 647.0871 276.18433 654.21484 275.88235 661.39453 272.69922 C 664.35449 271.38696 666.27832 270.86838 668.36328 273.79102 C 669.86597 275.89746 672.63525 275.54575 674.26758 274.64258 C 676.04456 273.65933 676.62842 271.25931 675.53711 268.98633 C 675.12238 268.12262 675.07751 267.07031 674.62305 266.23633 C 669.58697 256.99533 671.26709 247.08388 672.49609 237.51758 C 673.07562 233.00757 672.11768 230.95006 668.55469 228.86914 C 665.05915 226.8276 661.64709 225.92376 658.25586 225.92969 z M 657.64258 234.85742 C 658.72614 234.84502 659.76859 235.10696 660.77148 235.43945 C 661.62531 235.72252 663.48462 236.01941 662.92383 237.58203 C 660.46399 244.43579 662.80286 251.23245 663.0918 258.02734 C 663.30286 262.99197 660.26013 264.61761 656.53125 265.73828 C 651.59601 267.22153 647.57648 265.62546 645.48047 262.04492 C 639.41943 251.69125 645.31677 239.95834 654.26562 235.92383 C 655.43368 235.15611 656.55902 234.86983 657.64258 234.85742 z "
   id="path52"
   style="fill:#eb2629;fill-opacity:1" />
<path
   d="M 843.85938 225.92383 C 839.93729 225.88327 836.00027 226.98624 832.07227 229.37305 C 819.24341 237.16832 816.45483 251.92697 821.74219 265.33203 C 823.14612 268.89139 825.33777 271.48422 829.23047 273.06055 C 835.46741 275.74036 841.14667 275.56662 846.94727 272.6875 C 848.60596 271.86423 850.82257 269.72504 852.94727 272.43359 C 854.86859 274.883 857.25378 276.1221 860.19336 274.24219 C 863.7453 271.97061 861.33716 269.1438 860.33203 266.89453 C 855.91846 257.01877 855.86908 246.78056 858.38867 236.67188 C 859.3623 232.76562 858.11182 230.77174 855.55664 229.33008 C 851.68854 227.14751 847.78146 225.96439 843.85938 225.92383 z M 843.65625 234.93945 C 844.55878 234.9636 845.46143 235.08372 846.36133 235.23633 C 847.63593 235.45247 848.25073 236.18318 848.20898 238.17383 C 848.07141 244.74403 847.15155 251.38499 848.92188 257.93359 C 849.37109 259.59558 849.414 261.6236 847.30273 263.19531 C 845.24121 264.30591 843.56329 265.49503 841.71094 265.91016 C 835.50458 267.301 831.95569 265.02258 829.90234 258.69141 C 826.96136 249.62312 830.82007 240.28523 839.1543 235.91016 C 840.6479 235.12609 842.15203 234.89921 843.65625 234.93945 z "
   id="path54"
   style="fill:#eb2629;fill-opacity:1" />





<path
   fill="#EB2629"
   opacity="1.000000"
   stroke="none"
   d=" M928.000122,255.690216   C929.320679,263.981293 937.147888,268.274841 944.158447,264.968475   C946.220337,263.996002 948.390930,263.166199 950.264771,261.904297   C952.825562,260.179779 954.519043,261.290009 956.002258,263.234344   C957.482117,265.174347 957.603516,267.185272 955.586426,268.934570   C949.709351,274.031464 940.798279,277.134583 931.821960,273.842590   C924.812683,271.272003 918.667480,264.426147 918.843384,255.488052   C919.061157,244.422913 923.170715,235.570343 931.195312,228.317276   C936.081116,223.901123 950.721252,225.022247 954.557434,230.231674   C956.078552,232.297272 957.197388,234.923920 954.999939,237.466949   C952.816895,239.993195 950.961975,238.982681 948.610535,237.352509   C941.338928,232.311554 935.390442,234.832352 931.633484,241.793594   C929.352417,246.020157 927.465088,250.297806 928.000122,255.690216  z"
   id="path66" />

<path
   fill="#EB2629"
   opacity="1.000000"
   stroke="none"
   d=" M883.000366,239.296051   C883.488281,248.167007 882.143311,256.602783 883.853455,265.012756   C884.337708,267.393921 883.472778,270.237366 882.607605,272.646484   C881.894531,274.632111 879.851074,275.412048 877.636292,274.984161   C875.192932,274.512146 873.972961,273.044647 873.991089,270.503876   C874.026794,265.513580 873.948181,260.522125 874.013733,255.532471   C874.089661,249.755569 873.916321,244.010605 873.064636,238.275742   C872.818970,236.621368 872.431335,236.032059 870.724792,235.949051   C868.465088,235.839172 866.231018,235.278885 863.974365,235.009079   C860.844971,234.634918 859.783752,232.721771 860.018005,229.842346   C860.233826,227.188904 861.369385,225.930618 864.392822,225.917557   C872.986938,225.880447 872.900574,225.725739 873.057312,217.039612   C873.099060,214.726791 871.582214,211.347198 876.025940,210.989700   C880.194702,210.654343 881.941284,212.323792 882.181396,216.648361   C882.322266,219.187225 883.342834,221.545135 882.440613,224.275345   C881.484863,227.167908 884.558594,226.132126 885.139587,225.871414   C887.930298,224.619186 890.507568,225.732773 893.207458,225.883377   C896.507935,226.067474 896.874634,228.002014 896.986267,230.422577   C897.115051,233.213013 895.726746,234.799789 892.943054,234.978378   C890.169983,235.156296 887.435730,234.919128 884.650208,235.857361   C882.709778,236.510956 883.129456,237.618423 883.000366,239.296051  z"
   id="path70" />
<path
   fill="#EB2629"
   opacity="1.000000"
   stroke="none"
   d=" M698.000244,269.915710   C698.064636,274.119904 695.863281,275.248230 692.522583,274.981140   C689.214233,274.716614 688.947388,272.550751 688.946533,269.783356   C688.943420,259.530487 689.440002,249.266830 688.095825,239.031342   C687.795959,236.747253 687.399353,235.888290 684.977356,235.920593   C682.732544,235.950546 680.436157,235.480209 678.240173,234.923584   C675.563721,234.245163 674.612793,232.204178 675.034058,229.593262   C675.398071,227.336609 676.265076,225.948685 679.148315,225.908081   C687.975891,225.783813 687.914795,225.621185 688.038940,216.774445   C688.072449,214.385635 686.817566,211.124802 691.294800,210.963974   C695.239197,210.822266 697.035217,212.320709 697.121399,216.429855   C697.163879,218.457199 698.695374,220.515167 697.685303,222.612701   C695.568665,227.008041 699.317688,226.603378 700.881592,225.781250   C703.719666,224.289337 706.002808,225.744888 708.465698,226.073608   C711.227966,226.442276 712.261230,228.432999 711.987610,231.108932   C711.729248,233.634583 710.286438,234.782669 707.757935,235.024429   C697.996216,235.957779 697.825195,236.001938 698.060120,245.510895   C698.222534,252.084381 697.061951,258.711823 698.868164,265.258453   C699.209290,266.494934 698.321594,268.070465 698.000244,269.915710  z"
   id="path72" />





<path
   fill="#EB2629"
   opacity="1.000000"
   stroke="none"
   d=" M906.189209,227.036209   C909.979187,226.777176 912.061890,227.999985 912.002075,231.717499   C911.802795,244.095261 910.410767,256.439636 910.987305,268.840027   C911.133362,271.981995 908.546875,272.808563 906.431580,272.835724   C903.744141,272.870209 902.074951,270.818268 902.034485,268.040375   C901.940308,261.570068 901.915222,255.096024 902.025146,248.626251   C902.128296,242.557907 901.595154,236.489609 902.845581,230.413544   C903.282227,228.292068 904.478821,227.890121 906.189209,227.036209  z"
   id="path84" />















<path
   fill="#EB2629"
   opacity="1.000000"
   stroke="none"
   d=" M855.338257,208.165253   C851.750549,212.069031 848.432251,215.717651 845.128296,219.379227   C843.454346,221.234436 841.676636,221.772690 839.544922,220.057510   C837.496277,218.409210 837.177002,215.820435 838.445007,214.284546   C842.082947,209.877838 844.847107,204.702286 849.434570,201.116516   C851.641174,199.391800 854.092651,197.465942 856.737061,200.312637   C859.391418,203.170044 858.122986,205.693161 855.338257,208.165253  z"
   id="path116" />




<path
   fill="#EB2629"
   opacity="1.000000"
   stroke="none"
   d=" M904.173706,208.341339   C909.378235,205.137863 913.147644,206.036346 913.937866,210.433884   C914.352905,212.743332 914.360413,215.407028 911.853271,216.489517   C909.651917,217.440002 906.727905,217.950027 904.879028,216.133850   C902.901550,214.191315 901.854431,211.439301 904.173706,208.341339  z"
   id="path126" />




<path
   fill="#FFFFFF"
   opacity="1.000000"
   stroke="none"
   d=" M768.469360,233.514175   C768.258484,234.358292 767.877136,234.994644 767.495789,235.630981   C766.602051,234.888687 767.058594,234.044403 767.614868,233.072144   C768.043823,233.054718 768.171326,233.180557 768.469360,233.514175  z"
   id="path136" />






















</svg>