<?xml version="1.0" encoding="UTF-8" standalone="no"?>
<svg
   xmlns:dc="http://purl.org/dc/elements/1.1/"
   xmlns:cc="http://creativecommons.org/ns#"
   xmlns:rdf="http://www.w3.org/1999/02/22-rdf-syntax-ns#"
   xmlns:svg="http://www.w3.org/2000/svg"
   xmlns="http://www.w3.org/2000/svg"
   xmlns:sodipodi="http://sodipodi.sourceforge.net/DTD/sodipodi-0.dtd"
   xmlns:inkscape="http://www.inkscape.org/namespaces/inkscape"
   version="1.1"
   id="Layer_1"
   x="0px"
   y="0px"
   width="100%"
   viewBox="0 0 1000 426"
   enable-background="new 0 0 1000 426"
   xml:space="preserve"
   sodipodi:docname="logo-simbolo.svg"
   inkscape:version="0.92.4 (5da689c313, 2019-01-14)"><metadata
   id="metadata187"><rdf:RDF><cc:Work
       rdf:about=""><dc:format>image/svg+xml</dc:format><dc:type
         rdf:resource="http://purl.org/dc/dcmitype/StillImage" /><dc:title></dc:title></cc:Work></rdf:RDF></metadata><defs
   id="defs185" /><sodipodi:namedview
   pagecolor="#ffffff"
   bordercolor="#666666"
   borderopacity="1"
   objecttolerance="10"
   gridtolerance="10"
   guidetolerance="10"
   inkscape:pageopacity="0"
   inkscape:pageshadow="2"
   inkscape:window-width="1920"
   inkscape:window-height="1017"
   id="namedview183"
   showgrid="false"
   inkscape:zoom="0.76199998"
   inkscape:cx="672.04723"
   inkscape:cy="159.6125"
   inkscape:window-x="-8"
   inkscape:window-y="-8"
   inkscape:window-maximized="1"
   inkscape:current-layer="Layer_1" />


<path
   fill="#0033AA"
   opacity="1.000000"
   stroke="none"
   d=" M106.311127,62.276863   C110.630470,57.402351 116.634056,55.245316 121.961830,52.096024   C147.129013,37.219475 172.482605,22.657846 197.800278,8.036812   C201.710815,5.778468 205.779938,3.794772 209.887863,1.342029   C211.066666,1.000000 212.133347,1.000000 213.600006,1.000000   C223.515045,7.976773 234.162567,13.054599 244.299881,18.981709   C267.893402,32.776432 291.612457,46.356445 315.275116,60.032993   C316.129272,60.526665 316.980103,61.079525 316.897034,62.620728   C312.594757,67.137367 307.090546,69.296860 302.093994,72.211014   C274.938416,88.049065 247.650757,103.660057 220.462814,119.443192   C217.745789,121.020477 215.083725,122.820168 211.407181,122.967957   C203.426285,120.262932 196.838104,115.628319 189.952560,111.625916   C163.457382,96.224907 136.814484,81.079514 110.371056,65.589699   C108.947273,64.755692 107.304710,64.209892 106.311127,62.276863  z"
   id="path6" />
<path
   fill="#AD2624"
   opacity="1.000000"
   stroke="none"
   d=" M1.000000,243.333328   C7.665454,241.149887 12.945830,236.651520 18.861595,233.409790   C32.464661,225.955566 45.681042,217.797729 59.089214,209.985291   C74.443810,201.038727 89.836105,192.156876 105.529831,183.110092   C109.201965,183.129227 111.643883,185.372482 114.313431,186.916580   C144.486298,204.368759 174.653412,221.830719 204.856842,239.230133   C207.067337,240.503555 209.864624,241.311508 210.729431,244.625854   C210.396423,246.854324 208.970642,247.730652 207.508682,248.569611   C175.434784,266.975220 143.477585,285.582825 111.449448,304.067566   C110.005196,304.901123 108.522362,305.672119 106.449127,305.858795   C97.886986,302.502991 90.520142,297.607513 82.910965,293.201935   C57.270775,278.356689 31.618454,263.532349 5.967671,248.705338   C4.389991,247.793396 2.760937,246.916077 1.265482,245.252655   C1.000000,244.555557 1.000000,244.111099 1.000000,243.333328  z"
   id="path8" />
<path
   fill="#C7940D"
   opacity="1.000000"
   stroke="none"
   d=" M317.291107,426.603455   C316.555542,427.000000 316.111115,427.000000 315.333313,427.000000   C306.552185,424.221161 299.432007,418.926392 291.830048,414.586090   C266.585754,400.173065 241.498367,385.485504 216.280701,371.024658   C214.103531,369.776184 211.888306,368.604492 210.877075,365.609222   C210.356857,340.754517 210.668533,316.313995 210.607422,291.874420   C210.570831,277.243134 210.497940,262.611145 210.714691,247.534027   C210.836670,246.810257 210.909531,246.532303 211.137253,245.865692   C213.488541,243.201599 215.321472,245.162445 217.036346,246.148941   C235.340240,256.678497 253.666443,267.170013 271.909943,277.803986   C285.700775,285.842499 299.606323,293.682190 313.360870,301.783295   C315.224579,302.881012 317.240631,303.774506 318.143188,306.459534   C318.706970,309.347321 318.602448,311.842621 318.603149,314.329590   C318.612610,348.855530 318.619720,383.381439 318.589447,417.907349   C318.587006,420.698029 319.020782,423.575989 317.291107,426.603455  z"
   id="path10" />
<path
   fill="#78291C"
   opacity="1.000000"
   stroke="none"
   d=" M1.000000,245.468658   C9.235649,248.219620 16.399815,253.403152 24.018337,257.731232   C49.415607,272.159393 74.646973,286.879608 99.939735,301.491669   C101.807716,302.570831 103.658264,303.680176 105.852219,304.893646   C107.786530,306.999084 107.599724,309.384674 107.601662,311.693237   C107.631912,347.755859 107.629097,383.818481 107.604660,419.881104   C107.603203,422.029572 107.744751,424.223633 106.300919,426.600677   C105.555557,427.000000 105.111107,427.000000 104.333328,427.000000   C93.283180,422.388641 83.558830,415.965271 73.499916,410.168457   C51.595932,397.545593 29.677118,384.947479 7.840367,372.208374   C5.575582,370.887146 2.998239,369.913727 1.217507,367.292786   C1.000000,326.645782 1.000000,286.291534 1.000000,245.468658  z"
   id="path12" />
<path
   fill="#FCBD30"
   opacity="1.000000"
   stroke="none"
   d=" M317.333313,427.000000   C317.000000,386.647186 317.000000,346.294403 317.000000,305.473236   C321.748260,300.440796 327.829987,297.943146 333.401917,294.727020   C361.201752,278.680908 388.861572,262.390747 416.829315,246.637634   C418.440277,245.730240 420.359558,242.961380 422.488770,246.612518   C422.441864,286.687561 422.560303,326.334137 422.213928,366.419128   C414.165863,371.526337 406.383728,376.281982 398.491760,380.847778   C372.699585,395.769562 346.867767,410.622803 321.047791,425.496460   C320.482819,425.821930 319.876709,426.075867 319.144897,426.681580   C318.555542,427.000000 318.111115,427.000000 317.333313,427.000000  z"
   id="path14" />
<path
   fill="#EB2629"
   opacity="1.000000"
   stroke="none"
   d=" M106.333328,427.000000   C106.040932,386.648560 106.081863,346.297089 106.155167,305.478699   C115.072884,301.291718 123.017159,295.861664 131.324554,291.100800   C154.013840,278.097931 176.660645,265.019989 199.246750,251.838928   C202.914902,249.698196 207.102905,248.298141 210.124237,244.577484   C210.505310,244.370590 210.781464,244.543839 211.245758,245.167786   C211.551453,285.104126 211.450867,324.589844 211.484329,364.504272   C212.079376,368.081360 209.917831,369.278534 207.670349,370.589966   C180.908112,386.206238 153.960800,401.502960 127.236191,417.184357   C123.071281,419.628265 118.801407,421.898132 114.666824,424.394714   C112.765709,425.542664 110.731689,426.155090 108.296654,426.776489   C107.555557,427.000000 107.111107,427.000000 106.333328,427.000000  z"
   id="path16" />




<path
   fill="#E6B012"
   opacity="1.000000"
   stroke="none"
   d=" M422.204346,244.745056   C401.038818,257.111633 380.098938,269.221863 359.128632,281.279114   C345.346436,289.203430 331.520264,297.051331 317.356903,304.969177   C297.903412,294.058563 278.793854,283.134735 259.714233,272.158936   C243.936783,263.082764 228.194641,253.945206 212.084900,244.692566   C211.734711,244.302170 211.736481,244.054062 211.895721,243.469269   C218.556427,237.575516 226.402710,234.193420 233.686172,229.922333   C258.629395,215.295364 283.809357,201.074692 308.744995,186.432343   C311.167938,185.009613 313.537964,183.429077 316.656067,182.748474   C351.912872,202.976242 386.813568,223.118805 421.886719,243.562164   C422.178467,244.064041 422.297791,244.265121 422.204346,244.745056  z"
   id="path26" />
<path
   fill="#0047BA"
   opacity="1.000000"
   stroke="none"
   d=" M317.006775,182.376312   C307.085571,188.664764 297.195465,194.559052 287.225220,200.314468   C262.888123,214.363312 238.512527,228.345428 214.163361,242.373398   C213.601746,242.696930 213.169708,243.245407 212.343979,243.775482   C209.734589,241.332703 210.428116,238.202209 210.423370,235.289734   C210.369125,202.058762 210.330902,168.827454 210.463409,135.596939   C210.480484,131.318039 208.964539,127.033150 210.762604,122.382568   C219.090820,120.341408 225.276230,115.069344 232.136459,111.200554   C251.020325,100.551094 269.719666,89.574837 288.515625,78.768997   C297.694305,73.492157 306.925537,68.306808 316.479187,63.031464   C316.883606,94.298477 316.944885,125.614075 316.997925,156.929688   C317.012054,165.259430 317.000946,173.589203 317.006775,182.376312  z"
   id="path28" />















































<path
   fill="#E7AD22"
   opacity="1.000000"
   stroke="none"
   d=" M421.994659,245.490128   C422.000854,244.830307 422.010071,244.636703 422.039246,244.153015   C423.540436,244.759521 422.973846,246.235779 422.974670,247.467056   C423.001770,286.658875 422.993561,325.850708 422.980743,365.042542   C422.980591,365.533905 422.851776,366.025208 422.390625,366.687103   C421.998077,326.557220 421.997894,286.256775 421.994659,245.490128  z"
   id="path124" />


<path
   fill="#002E63"
   opacity="1.000000"
   stroke="none"
   d=" M210.749115,121.887878   C213.027557,162.306198 211.379059,202.633545 211.991074,243.403259   C212.010727,243.862015 211.870148,244.206680 211.801544,244.378479   C211.732925,244.550278 211.674179,244.529114 211.648926,244.547455   C211.538651,244.864365 211.453629,245.162903 211.216003,245.021530   C211.063385,244.581635 210.684296,244.306335 210.456726,244.251831   C198.437805,237.235382 186.679672,230.216415 174.848007,223.323639   C152.011429,210.019730 129.133331,196.787079 106.060051,183.249084   C105.898392,147.263580 105.949234,111.553886 105.999809,75.844185   C106.005920,71.525429 106.010666,67.206673 106.085815,62.416203   C134.225388,78.162308 162.284210,94.399162 190.373077,110.583900   C197.000992,114.402885 203.730011,118.046394 210.749115,121.887878  z"
   id="path130" />
<path
   fill="#CC4E1C"
   opacity="1.000000"
   stroke="none"
   d=" M211.039352,245.087708   C211.063385,244.581635 211.342834,244.478775 211.483246,244.522293   C211.749069,246.719147 211.982346,248.872421 211.983856,251.025848   C212.010681,289.326294 212.009323,327.626770 212.023071,366.385376   C211.873108,366.898010 211.714111,366.952515 211.310104,367.065704   C211.048492,326.614197 211.031906,286.103973 211.039352,245.087708  z"
   id="path132" />
























</svg>