<?xml version="1.0" encoding="UTF-8" standalone="no"?>
<svg
   xmlns:dc="http://purl.org/dc/elements/1.1/"
   xmlns:cc="http://creativecommons.org/ns#"
   xmlns:rdf="http://www.w3.org/1999/02/22-rdf-syntax-ns#"
   xmlns:svg="http://www.w3.org/2000/svg"
   xmlns="http://www.w3.org/2000/svg"
   xmlns:sodipodi="http://sodipodi.sourceforge.net/DTD/sodipodi-0.dtd"
   xmlns:inkscape="http://www.inkscape.org/namespaces/inkscape"
   version="1.1"
   id="Layer_1"
   x="0px"
   y="0px"
   width="100%"
   viewBox="0 0 1000 426"
   enable-background="new 0 0 1000 426"
   xml:space="preserve"
   sodipodi:docname="logo-texto3.svg"
   inkscape:version="0.92.4 (5da689c313, 2019-01-14)"><metadata
   id="metadata187"><rdf:RDF><cc:Work
       rdf:about=""><dc:format>image/svg+xml</dc:format><dc:type
         rdf:resource="http://purl.org/dc/dcmitype/StillImage" /><dc:title /></cc:Work></rdf:RDF></metadata><defs
   id="defs185" /><sodipodi:namedview
   pagecolor="#ffffff"
   bordercolor="#666666"
   borderopacity="1"
   objecttolerance="10"
   gridtolerance="10"
   guidetolerance="10"
   inkscape:pageopacity="0"
   inkscape:pageshadow="2"
   inkscape:window-width="1920"
   inkscape:window-height="1017"
   id="namedview183"
   showgrid="false"
   inkscape:zoom="0.76199998"
   inkscape:cx="458.79263"
   inkscape:cy="159.6125"
   inkscape:window-x="-8"
   inkscape:window-y="-8"
   inkscape:window-maximized="1"
   inkscape:current-layer="Layer_1" />











<path
   fill="#0047BA"
   opacity="1.000000"
   stroke="none"
   d=" M1001.000000,331.531342   C996.120178,332.932251 994.615295,331.133362 994.862488,326.057404   C995.335449,316.342621 995.266907,306.577820 994.879028,296.855499   C994.704590,292.483826 996.208496,291.307373 1000.552368,292.000000   C1001.000000,305.020905 1001.000000,318.041779 1001.000000,331.531342  z"
   id="path24"
   style="fill:#1867e4;fill-opacity:1" />

























<path
   fill="#0047BA"
   opacity="1.000000"
   stroke="none"
   d=" M896.041870,330.652161   C896.005493,325.190247 895.946655,320.196106 896.020264,315.203949   C896.066345,312.081055 895.054932,310.111481 891.575928,309.978668   C887.863464,309.836945 885.366028,311.449707 885.083618,315.125580   C884.740417,319.593262 884.896667,324.110626 885.041504,328.599915   C885.119385,331.014801 884.646301,332.140900 881.832458,332.101135   C879.163330,332.063416 878.917542,330.888214 878.967896,328.767731   C879.074524,324.276276 878.930969,319.779114 879.023682,315.287048   C879.087769,312.181244 878.105347,309.877808 874.664856,310.070984   C871.485718,310.249512 868.259155,311.160706 868.056763,315.157806   C867.821411,319.806366 867.919739,324.477875 868.036133,329.135376   C868.087585,331.192810 867.619751,332.111298 865.306702,332.068665   C863.096497,332.027924 862.972656,330.922821 862.983093,329.251587   C863.025818,322.427673 863.016113,315.603271 862.989441,308.779175   C862.983215,307.193024 863.293579,305.027405 865.138794,306.157501   C868.210815,308.038940 870.167786,306.370300 872.582153,305.238312   C873.553650,304.782837 874.873596,305.114349 876.024292,304.989532   C879.373230,304.626251 881.508911,308.624451 883.556641,308.354431   C885.938354,308.040375 887.901123,304.917511 891.259583,304.936340   C898.017761,304.974243 900.970947,307.627045 900.996582,314.282135   C901.014526,318.942505 900.842041,323.609863 901.045288,328.261414   C901.241455,332.750366 899.318359,332.928314 896.041870,330.652161  z"
   id="path76"
   style="fill:#1867e4;fill-opacity:1" />
<path
   fill="#0047BA"
   opacity="1.000000"
   stroke="none"
   d=" M614.500183,299.648041   C610.793701,299.949646 607.459106,299.843597 604.143799,300.048645   C602.121887,300.173706 599.033630,298.811310 598.301270,301.007050   C597.402710,303.701263 597.905090,306.934143 598.141357,309.907166   C598.270874,311.537964 599.950928,310.950134 600.994263,310.973694   C604.153564,311.045013 607.318604,311.087769 610.475159,310.970795   C612.411499,310.899017 613.048889,311.574677 613.058411,313.529877   C613.068298,315.555450 612.276550,316.125031 610.414612,316.022644   C608.424316,315.913208 606.423279,315.999695 604.426941,315.999939   C597.993469,316.000732 598.263000,316.015259 597.902771,322.631073   C597.672546,326.858093 598.608521,328.686981 603.216431,328.088257   C606.651794,327.641876 610.193298,328.056519 613.685242,327.981110   C615.344299,327.945282 616.085693,328.451538 616.022888,330.238678   C615.962585,331.958008 614.942810,332.000732 613.710327,331.999115   C607.222229,331.990662 600.732849,331.921936 594.246643,332.033112   C591.949280,332.072479 591.986084,330.771179 591.989563,329.165497   C592.012207,318.684753 592.059875,308.203369 591.954834,297.723602   C591.932129,295.457672 592.770386,294.918121 594.857178,294.962921   C600.178345,295.077209 605.515320,295.215576 610.823059,294.924927   C614.403870,294.728821 615.740784,295.863953 614.500183,299.648041  z"
   id="path78"
   style="fill:#1867e4;fill-opacity:1" />
<path
   d="M 832.4043 291.94336 C 830.29175 291.90994 829.94025 292.87878 829.97656 294.6582 C 830.05719 298.60941 830.00195 302.5636 830.00195 306.74023 C 827.39545 305.72876 825.17474 304.50256 822.16602 305 C 815.33014 305.53458 812.76672 310.05209 811.26367 315.42188 C 808.5166 325.23602 814.67389 333.54514 824.21484 332.9707 C 827.32959 332.78317 830.22211 331.07556 833.55859 331.89844 C 835.36432 332.34378 834.97577 330.48767 834.97852 329.45117 C 835.00934 317.78864 834.95935 306.12698 835.0332 294.46484 C 835.04596 292.44849 834.28986 291.97314 832.4043 291.94336 z M 823.95898 309.87109 C 824.38954 309.89114 824.83212 309.93671 825.28711 310.00391 C 829.79486 310.66968 831.59229 315.83371 829.98438 323.54883 C 829.31171 326.77661 825.11237 329.04474 821.74414 328.01953 C 817.05115 326.59103 816.85736 322.68954 816.72461 318.80859 C 816.67981 317.49655 816.93109 316.1745 817.21094 314.48633 C 818.55874 310.83837 820.94512 309.73077 823.95898 309.87109 z "
   id="path80"
   style="fill:#1867e4;fill-opacity:1" />
<path
   d="M 466.54688 304.8457 C 466.10837 304.85923 465.66698 304.89702 465.22461 304.95898 C 462.33008 305.36441 459.91708 308.29504 456.42383 306.1582 C 455.06445 305.32666 455.0155 307.42737 455.01367 308.50195 C 454.99429 319.82501 455.0372 331.14801 454.9707 342.4707 C 454.95938 344.39914 455.56537 345.05011 457.52734 345.05859 C 459.5545 345.06735 460.10074 344.27557 460.02539 342.41211 C 459.91785 339.75229 460.01767 337.08591 459.99609 334.42188 C 459.98166 332.63815 460.0141 332.00497 462.44922 332.61328 C 473.18155 335.29434 478.36688 327.79019 478 319.87695 C 479.05549 309.86938 473.1244 304.64281 466.54688 304.8457 z M 466.03711 309.92383 C 469.08999 309.93238 471.13448 311.52915 472.02734 314.85742 C 472.35931 316.09485 473.34799 317.15961 473 318.99219 C 472.85092 322.6701 471.58096 325.34665 469.04688 327.47461 C 466.61209 329.51917 464.36072 328.27188 461.92383 327.47852 C 459.40787 326.65945 460.05502 324.76276 460.01367 323.06641 C 459.96097 320.90479 460.20981 318.71597 459.95312 316.58398 C 459.50119 312.83047 460.80597 310.52893 464.66797 310.01758 C 465.14484 309.95444 465.60098 309.92261 466.03711 309.92383 z "
   id="path82"
   style="fill:#1867e4;fill-opacity:1" />

<path
   d="M 527.78906 304.2832 C 525.62235 304.26494 523.36626 304.793 521.19922 305.9668 C 519.16565 307.06833 520.0694 308.55209 520.13281 309.78516 C 520.22156 311.50894 521.71631 311.24841 522.70312 310.625 C 523.96204 309.82965 525.26099 310.09018 527.00391 310 C 528.11255 310.00046 528.7785 310.01703 529.44336 309.99805 C 532.25256 309.91803 533.96204 311.30545 533.93164 314.07227 C 533.89209 317.68204 530.96368 315.43982 529.4082 315.93555 C 528.35107 316.27243 527.09802 315.96008 525.93555 316.00781 C 520.91052 316.21402 517.92682 319.45969 518.00195 324.60352 C 518.07355 329.50592 521.3819 332.71426 526.24219 333.04688 C 530.38684 333.33051 534.10388 330.4859 538.45898 331.86719 C 540.49591 332.51321 539.94745 330.20633 539.96875 329.06641 C 540.04645 324.90909 540.0094 320.75055 539.99805 316.5918 C 539.97813 309.31846 534.28921 304.338 527.78906 304.2832 z M 528.36328 320.2793 C 530.04844 320.28809 532.03336 320.89626 533.95898 322.16992 C 534.27661 325.37436 533.27692 327.11649 530.42383 328.09375 C 528.41724 328.78104 526.82965 328.8193 525.14258 327.5918 C 523.466 326.37186 523.77649 324.55933 524.11133 323.07812 C 524.52534 321.24684 526.19665 320.26799 528.36328 320.2793 z "
   id="path86"
   style="fill:#1867e4;fill-opacity:1" />
<path
   fill="#0047BA"
   opacity="1.000000"
   stroke="none"
   d=" M757.511353,311.361908   C758.754944,315.185059 757.343079,316.124329 753.806641,316.085449   C743.045166,315.967133 743.004211,316.117554 743.027832,327.253632   C743.033691,330.013275 743.459717,332.649963 739.172729,332.072327   C737.389282,331.832031 736.977783,331.213654 736.983582,329.615295   C737.022034,318.961823 737.030457,308.308014 736.974487,297.654724   C736.965027,295.844849 737.353088,294.929749 739.429260,294.966400   C745.419983,295.072266 751.414551,295.052338 757.406128,294.972534   C759.255798,294.947937 760.070374,295.427490 760.058472,297.463715   C760.047058,299.414551 759.422119,300.090546 757.478821,300.030334   C753.820190,299.916962 750.143311,300.183502 746.497192,299.941925   C743.593994,299.749542 742.626221,300.818817 742.971924,303.587036   C743.135681,304.898285 743.152283,306.268188 742.969666,307.574371   C742.549072,310.582336 743.989319,311.189850 746.657837,311.050751   C750.141846,310.869110 753.644897,311.051849 757.511353,311.361908  z"
   id="path88"
   style="fill:#1867e4;fill-opacity:1" />
<path
   d="M 846.1875 304.92578 C 845.64397 304.93212 845.08697 304.94786 844.51953 304.9707 C 840.96796 305.11368 839.39038 306.61179 840.33594 310.54297 C 848.93115 308.29254 851.79303 309.32922 853.81445 316 C 850.74744 316 847.78235 315.92273 844.82422 316.01953 C 840.54407 316.15958 837.16882 319.1225 837.2207 323.85742 C 837.25775 327.23773 838.03961 331.17432 842.13477 332.59375 C 847.59747 334.48718 852.92493 331.68637 858.30859 331.36133 C 859.91809 331.26413 858.67157 325.04831 858.98633 321.65039 C 859.07806 320.66006 858.94989 319.6517 859.00781 318.65625 C 859.69492 306.84901 854.34044 304.83066 846.1875 304.92578 z M 847.31055 320.02539 C 850.11407 320.05978 853.06372 320.06381 853.82422 322.51953 C 854.68542 325.30057 852.08832 326.89062 849.80859 327.9375 C 847.27448 329.10113 844.46313 329.2486 843.23828 326.29688 C 841.91107 323.09836 843.711 320.98889 847.31055 320.02539 z "
   id="path90"
   style="fill:#1867e4;fill-opacity:1" />
<path
   d="M 711.64062 304.84766 C 707.72222 304.84099 703.48553 306.93332 699.93555 311.25 C 699.28882 312.95908 698.55536 314.23862 698.19531 315.61523 C 696.68579 321.38641 699.2912 328.72882 703.59961 331.14453 C 708.90656 334.12009 715.63245 333.60339 719.56641 329.91797 C 722.89655 326.79822 724.32324 317.74466 722.26758 312.77148 C 720.11265 307.55809 716.08149 304.85521 711.64062 304.84766 z M 708.99805 309.97461 C 711.70471 309.89615 714.17218 309.95004 716.01562 312.48438 C 718.64044 316.0929 718.67706 322.19846 715.85742 325.63086 C 712.66986 329.51123 708.85529 329.3627 704.96289 324.82227 C 702.93683 321.17905 703.13519 317.69891 704.35742 314.375 C 705.10553 312.34024 706.06122 310.05975 708.99805 309.97461 z "
   id="path92"
   style="fill:#1867e4;fill-opacity:1" />
<path
   d="M 914.85938 305.01758 C 911.4578 305.0028 908.28543 306.45773 906.26758 309.31055 C 902.7453 314.29022 903.53717 324.78873 905.68555 328.11328 C 908.36157 332.25439 916.005 334.40686 922.26367 332.85352 C 925.28882 332.10272 927.30658 330.66779 925.35547 327.0332 C 924.93896 327.1756 924.51074 327.34457 924.06836 327.46875 C 917.29504 329.36926 912.26691 328.14438 910.00391 324.04883 C 908.65131 321.6008 908.10535 319.75235 912.15625 319.95508 C 916.29883 320.16235 920.45886 320.02429 924.61133 319.97656 C 925.48163 319.96658 927.34241 320.03308 926.76172 318.93555 C 925.2215 316.02493 927.05432 312.59503 924.83008 309.54297 C 921.89313 306.51793 918.26095 305.03236 914.85938 305.01758 z M 915.57422 309.91797 C 918.18506 309.94789 919.78113 311.72601 920.88086 313.99805 C 921.48651 315.24918 920.60327 316.05072 919.0918 316.01367 C 916.47125 315.9494 913.84967 315.99765 910.81641 315.99414 C 909.89148 312.51599 911.20618 310.55725 914.39062 310.01562 C 914.80652 309.94489 915.20124 309.91369 915.57422 309.91797 z "
   id="path94"
   style="fill:#1867e4;fill-opacity:1" />
<path
   d="M 565.31445 304.80859 C 562.84859 304.79539 560.40223 305.43439 558.07812 307.2793 C 550.74054 313.10397 550.84131 329.44708 562.54492 332.98633 C 572.22974 333.00482 574.90765 331.56012 577.41406 325.05859 C 578.7077 321.70285 578.22577 318.12708 577.86523 314.76562 C 577.36023 310.05719 574.35999 306.54025 569.75391 305.41797 C 568.2811 305.05914 566.79397 304.81651 565.31445 304.80859 z M 564.24414 310.00195 C 569.96954 310.14142 572.4245 312.50442 572.99609 318.02344 C 573.4798 322.69296 570.68433 327.56476 566.83594 328.59766 C 565.02606 329.08344 563.29688 328.22028 561.94922 327.33203 C 556.85211 323.9722 558.14478 312.76166 564.24414 310.00195 z "
   id="path96"
   style="fill:#1867e4;fill-opacity:1" />
<path
   d="M 488.25586 304.91211 C 486.40205 305.00101 484.51675 305.36314 482.59961 305.92188 C 479.89453 306.71021 481.02429 308.58121 481.1582 309.89648 C 481.32379 311.52341 482.75937 311.18173 483.82422 310.57812 C 485.71396 309.50696 487.73944 310.18021 489.69531 310.00977 C 492.53561 309.7623 494.83142 310.715 494.92188 313.83789 C 495.03525 317.75195 491.77872 315.86685 490.1543 315.90234 C 480.04343 316.1232 477.33566 319.53482 480.20117 329.48047 C 481.10025 330.51846 481.76727 331.2941 482.5918 331.82422 C 488.19238 335.4248 493.82132 330.21677 499.44336 331.83398 C 499.62799 331.06726 499.96677 330.30133 499.97266 329.5332 C 500.0174 323.70099 500.04767 317.86667 499.9707 312.03516 C 499.94367 309.98764 499.09778 308.13797 497.27539 307.07617 C 494.34944 305.37142 491.34555 304.76394 488.25586 304.91211 z M 490.95508 319.82812 C 492.29189 319.8394 493.51709 320.31047 494.41602 321.41211 C 496.28485 323.70239 494.92322 326.35208 491.91211 327.9668 C 489.03522 329.26822 486.58551 328.96909 485.36133 326.53125 C 484.46933 324.75485 484.2955 322.39063 486.82031 321.00586 C 488.16931 320.26599 489.61827 319.81685 490.95508 319.82812 z "
   id="path98"
   style="fill:#1867e4;fill-opacity:1" />
<path
   d="M 980.39648 304.91992 C 977.75631 304.8936 975.17903 305.40202 973.4082 305.95898 C 971.09302 306.68713 971.98779 308.37857 972.10352 309.58008 C 972.36639 312.30847 973.85956 310.13287 974.86133 310.09961 C 977.18091 310.02258 979.54108 309.77911 981.81445 310.10156 C 984.26141 310.44873 986.13141 312.19592 985.85742 314.71875 C 985.58594 317.2175 983.16595 315.9097 981.7793 315.9375 C 971.5014 316.14352 969.88135 317.75256 970.34766 328.11523 C 971.37885 330.87106 973.54041 332.16309 975.88477 332.86328 C 980.6499 334.28656 985.09338 330.53027 990.0293 331.78516 C 991.47217 332.15195 990.94812 330.00079 990.96289 329.00391 C 991.04181 323.69241 990.93854 318.37729 991.03516 313.06641 C 991.06763 311.28333 990.32678 310.11615 989.31445 308.70117 C 987.2893 305.87066 983.79099 304.95377 980.39648 304.91992 z M 980.3418 319.90234 C 982.45071 319.76478 984.44066 320.50335 985.73828 321.99023 C 986.73157 323.12851 986.77362 326.26926 983.39844 327.23633 C 981.33771 328.16711 979.57263 329.10645 977.75 327.92773 C 976.4104 327.06146 974.76672 326.15747 975.06641 324.18555 C 975.3418 322.37296 976.41754 320.96091 978.21484 320.33789 C 978.92281 320.09251 979.63883 319.9482 980.3418 319.90234 z "
   id="path100"
   style="fill:#1867e4;fill-opacity:1" />
<path
   fill="#0047BA"
   opacity="1.000000"
   stroke="none"
   d=" M932.932068,331.992249   C930.114075,332.309875 928.839844,331.799438 928.932922,328.904236   C929.146667,322.253815 929.193665,315.583771 928.916992,308.937988   C928.783813,305.737671 931.053894,305.108917 932.437317,306.183228   C934.947388,308.132355 936.732788,306.304047 938.521423,305.773895   C946.522583,303.402405 950.998596,306.453430 950.999878,314.664978   C951.000671,319.491516 950.919189,324.320007 951.036926,329.143677   C951.087402,331.212311 950.599060,332.107605 948.298767,332.068268   C946.078735,332.030304 945.965210,330.907013 945.983704,329.243805   C946.033630,324.750671 945.903687,320.253876 946.030945,315.763824   C946.130432,312.255859 945.190857,309.905060 941.136047,309.990387   C937.135437,310.074585 935.068420,312.084656 935.013672,316.056946   C934.954102,320.383362 935.038513,324.711823 934.973633,329.038086   C934.956055,330.211945 935.590820,331.905457 932.932068,331.992249  z"
   id="path102"
   style="fill:#1867e4;fill-opacity:1" />
<path
   fill="#0047BA"
   opacity="1.000000"
   stroke="none"
   d=" M787.000000,310.260101   C787.314514,305.761261 787.318665,305.750214 791.078613,307.167023   C792.416382,307.671143 793.301270,306.775208 794.361145,306.272888   C802.552002,302.390991 808.752747,306.149963 808.979309,315.186615   C809.096130,319.846252 808.845398,324.518280 809.057739,329.171143   C809.181335,331.879547 807.867554,332.012512 805.759705,332.061096   C803.540833,332.112244 802.897644,331.334045 802.959473,329.188599   C803.093750,324.529907 802.968018,319.864349 803.012329,315.202209   C803.038513,312.442230 803.345520,309.568878 799.136841,309.999847   C795.538086,310.368347 792.117310,311.038879 792.021057,315.687439   C791.927979,320.181549 791.910339,324.681671 792.038635,329.174011   C792.098877,331.284271 791.520508,332.094360 789.265991,332.066589   C787.001953,332.038727 786.977173,330.836670 786.986511,329.208405   C787.021851,323.047363 787.000305,316.885986 787.000000,310.260101  z"
   id="path104"
   style="fill:#1867e4;fill-opacity:1" />
<path
   fill="#0047BA"
   opacity="1.000000"
   stroke="none"
   d=" M690.334229,305.141388   C694.830261,307.465149 695.622559,311.498627 695.921631,315.499237   C696.256042,319.971771 695.874939,324.493317 696.048950,328.984070   C696.143005,331.410400 695.319397,332.055328 692.945374,332.084686   C690.412170,332.116058 689.887207,331.140442 689.958740,328.873199   C690.100525,324.380157 690.013306,319.879456 689.994934,315.382050   C689.984314,312.772980 690.663696,309.659363 686.314270,310.000336   C682.702942,310.283447 679.231201,310.928619 679.041626,315.514679   C678.855957,320.004517 678.950195,324.508789 679.023010,329.005096   C679.053467,330.885742 678.913025,332.086212 676.434692,332.079346   C673.823120,332.072174 673.983643,330.607361 673.990234,328.875336   C674.015625,322.212463 673.973511,315.549225 674.026184,308.886688   C674.035339,307.731232 673.747803,305.270264 675.553894,306.160156   C680.746887,308.718750 685.006409,303.121704 690.334229,305.141388  z"
   id="path106"
   style="fill:#1867e4;fill-opacity:1" />
<path
   fill="#0047BA"
   opacity="1.000000"
   stroke="none"
   d=" M639.817627,308.568878   C641.982849,315.934845 640.591309,323.074982 640.995789,330.127808   C641.116638,332.233978 639.643860,331.921722 638.321533,332.014313   C636.638855,332.132172 635.948792,331.513641 635.978760,329.767853   C636.055664,325.281097 636.039612,320.791687 635.987183,316.304199   C635.948425,312.992371 635.555420,309.948944 631.059448,309.977814   C626.716187,310.005737 624.239136,312.073090 624.044312,316.380707   C623.849243,320.693817 623.948120,325.023376 624.023193,329.343933   C624.054016,331.113770 623.716248,332.093140 621.604187,332.055817   C619.739624,332.022797 618.937500,331.586456 618.965820,329.554291   C619.062927,322.574158 619.118530,315.588989 618.945923,308.611755   C618.873901,305.700562 620.933411,305.160126 622.247742,306.272095   C624.364563,308.062988 625.438904,306.731171 627.122864,306.016876   C631.689819,304.079620 636.046265,304.226166 639.817627,308.568878  z"
   id="path108"
   style="fill:#1867e4;fill-opacity:1" />
<path
   fill="#0047BA"
   opacity="1.000000"
   stroke="none"
   d=" M780.818604,329.668030   C776.371521,334.233002 771.321899,333.859802 766.431335,332.033234   C761.490295,330.187805 760.936096,325.640259 760.989990,321.015503   C761.038452,316.857361 761.074280,312.696381 760.970215,308.540344   C760.922302,306.625519 761.540894,305.945801 763.514160,305.941284   C765.520508,305.936676 766.072632,306.689514 766.028320,308.568695   C765.930359,312.725037 765.935547,316.886658 766.018738,321.043701   C766.096313,324.917297 769.287903,328.984314 772.055054,328.931458   C774.830811,328.878418 777.978027,324.738525 777.995605,321.068909   C778.016357,316.743958 778.026978,312.418671 777.992920,308.093903   C777.981934,306.697540 778.404907,305.824402 779.960693,306.019165   C781.010132,306.150482 782.953064,305.498505 782.833191,307.011810   C782.243042,314.463074 785.055054,322.196075 780.818604,329.668030  z"
   id="path110"
   style="fill:#1867e4;fill-opacity:1" />
<path
   fill="#0047BA"
   opacity="1.000000"
   stroke="none"
   d=" M646.907654,306.613220   C650.368408,304.358002 653.895569,304.762024 657.279053,305.213226   C660.069336,305.585327 662.119141,307.074615 660.495361,310.921326   C657.903931,309.617584 655.026611,310.090393 652.180664,309.998932   C650.479614,309.944305 649.332458,310.517578 649.007324,312.363892   C648.685852,314.189392 649.598999,315.095612 651.163513,315.596527   C652.696228,316.087280 654.247864,316.519745 655.775513,317.025116   C659.517944,318.263184 662.131775,320.579620 661.946045,324.779907   C661.762451,328.928925 659.219727,331.810394 655.378601,332.708221   C652.382812,333.408478 649.081787,333.163696 645.964294,332.855286   C643.898987,332.650940 642.588074,331.265778 642.967163,328.732056   C643.529907,324.969849 645.356750,328.298828 646.521240,328.064026   C648.625000,327.639801 650.546326,329.738007 653.070923,328.198608   C654.546326,327.298981 655.932190,327.071045 656.030090,324.990448   C656.133179,322.798370 654.596008,322.224823 653.091980,321.584106   C652.360535,321.272522 651.515686,321.238983 650.752563,320.987518   C647.548523,319.931702 644.177429,319.154266 643.442261,314.975677   C642.840698,311.557098 644.167480,309.042328 646.907654,306.613220  z"
   id="path112"
   style="fill:#1867e4;fill-opacity:1" />
<path
   fill="#0047BA"
   opacity="1.000000"
   stroke="none"
   d=" M969.976440,327.972107   C969.512268,329.937805 971.698669,333.087616 967.036194,333.086243   C960.684937,333.084412 957.212219,331.619598 957.046204,327.731720   C956.854858,323.251587 956.998474,318.757019 957.001038,314.268738   C957.002258,312.009033 957.603943,309.340515 953.735291,309.970306   C952.492493,310.172607 952.015137,309.426605 951.991577,308.199188   C951.965820,306.856628 952.206116,305.781799 953.836426,306.027802   C956.637329,306.450409 957.201416,305.054688 957.044617,302.623291   C956.938538,300.979584 956.277710,298.955688 959.415039,298.916473   C962.412598,298.879028 962.228455,300.676392 961.956421,302.452240   C961.423157,305.933777 963.318298,306.257629 966.006287,306.034241   C967.399902,305.918396 969.067200,305.554810 969.030457,308.045166   C968.993286,310.565704 967.227722,310.138367 965.922302,309.946808   C962.433716,309.434814 961.658630,311.074982 961.959473,314.139404   C962.169556,316.279846 961.999817,318.457489 961.999939,320.618530   C962.000305,327.989349 962.000427,327.989349 969.608032,328.026611   C970.052856,328.047485 970.001221,327.997955 969.976440,327.972107  z"
   id="path114"
   style="fill:#1867e4;fill-opacity:1" />


<path
   fill="#0047BA"
   opacity="1.000000"
   stroke="none"
   d=" M513.350098,311.276184   C510.934265,312.219940 509.829590,313.408142 509.944061,315.853668   C510.145569,320.157898 509.920624,324.480499 510.032959,328.791229   C510.088562,330.923737 509.817169,332.184753 507.156860,332.075928   C504.972412,331.986572 503.867523,331.730530 503.938873,329.110443   C504.123901,322.313110 503.985809,315.507324 504.019440,308.705109   C504.023926,307.798462 503.595062,306.441071 504.820312,306.180725   C506.052490,305.918915 508.456482,305.976776 508.551666,306.351135   C509.691223,310.831818 510.967194,307.006714 512.029297,306.448273   C514.087708,305.365906 516.219666,304.235809 518.473633,305.349274   C519.566040,305.888885 519.180725,307.567902 518.911011,308.586365   C518.193420,311.296692 515.024902,309.296906 513.350098,311.276184  z"
   id="path120"
   style="fill:#1867e4;fill-opacity:1" />
<path
   fill="#0047BA"
   opacity="1.000000"
   stroke="none"
   d=" M669.000000,324.912292   C667.966797,327.516418 671.484009,331.755249 666.567139,331.872498   C661.391968,331.995941 664.326965,327.661041 664.150208,325.527649   C663.699341,320.085999 664.020386,314.581879 663.988831,309.103027   C663.978821,307.362671 663.851257,305.926910 666.440125,305.920807   C668.906677,305.915039 669.048584,307.106567 669.023315,308.983948   C668.954041,314.129974 668.999756,319.277588 669.000000,324.912292  z"
   id="path122"
   style="fill:#1867e4;fill-opacity:1" />


<path
   fill="#0047BA"
   opacity="1.000000"
   stroke="none"
   d=" M667.844238,300.944519   C663.719055,301.724335 663.895203,299.337463 663.990662,296.884308   C664.103882,293.972046 666.607849,294.654297 667.569397,295.163940   C670.096619,296.503448 669.234192,298.816254 667.844238,300.944519  z"
   id="path128"
   style="fill:#1867e4;fill-opacity:1" />


























</svg>