<?xml version="1.0" encoding="UTF-8" standalone="no"?>
<svg
   xmlns:dc="http://purl.org/dc/elements/1.1/"
   xmlns:cc="http://creativecommons.org/ns#"
   xmlns:rdf="http://www.w3.org/1999/02/22-rdf-syntax-ns#"
   xmlns:svg="http://www.w3.org/2000/svg"
   xmlns="http://www.w3.org/2000/svg"
   xmlns:sodipodi="http://sodipodi.sourceforge.net/DTD/sodipodi-0.dtd"
   xmlns:inkscape="http://www.inkscape.org/namespaces/inkscape"
   version="1.1"
   id="Layer_1"
   x="0px"
   y="0px"
   width="100%"
   viewBox="0 0 1000 426"
   enable-background="new 0 0 1000 426"
   xml:space="preserve"
   sodipodi:docname="logo-texto1.svg"
   inkscape:version="0.92.4 (5da689c313, 2019-01-14)"><metadata
   id="metadata187"><rdf:RDF><cc:Work
       rdf:about=""><dc:format>image/svg+xml</dc:format><dc:type
         rdf:resource="http://purl.org/dc/dcmitype/StillImage" /><dc:title></dc:title></cc:Work></rdf:RDF></metadata><defs
   id="defs185" /><sodipodi:namedview
   pagecolor="#ffffff"
   bordercolor="#666666"
   borderopacity="1"
   objecttolerance="10"
   gridtolerance="10"
   guidetolerance="10"
   inkscape:pageopacity="0"
   inkscape:pageshadow="2"
   inkscape:window-width="1920"
   inkscape:window-height="1017"
   id="namedview183"
   showgrid="false"
   inkscape:zoom="0.76199998"
   inkscape:cx="672.04723"
   inkscape:cy="159.6125"
   inkscape:window-x="-8"
   inkscape:window-y="-8"
   inkscape:window-maximized="1"
   inkscape:current-layer="Layer_1" />










<path
   fill="#EB2629"
   opacity="1.000000"
   stroke="none"
   d=" M1001.000000,151.550018   C996.134094,155.405273 994.855286,155.071976 992.034546,149.418686   C991.638611,148.625153 991.504028,147.684204 990.464417,148.217896   C985.597778,150.716125 979.061279,150.254440 975.815918,156.434326   C981.694946,158.637589 987.777344,159.180862 993.221497,162.371750   C999.650208,166.139694 1000.823242,174.530945 999.721252,179.575455   C998.542725,184.969940 992.257996,189.541733 985.711731,189.966660   C979.955261,190.340347 974.166687,190.268570 968.775940,187.864899   C965.602844,186.449997 962.321289,184.783875 963.038696,180.326904   C963.673035,176.386581 967.609924,174.715149 970.660156,177.239700   C975.581726,181.313141 981.252319,180.085785 986.713806,179.594574   C988.377014,179.445007 991.047913,178.042633 990.708801,175.915497   C990.438477,174.219589 989.930969,172.261047 987.766052,170.732117   C983.887695,167.992996 979.419434,168.273254 975.364319,166.778229   C968.633362,164.296738 965.946350,161.506104 966.021667,156.422165   C966.097351,151.311493 970.408142,144.791428 975.183350,143.059143   C980.804443,141.019958 986.496094,139.163834 992.204895,137.381332   C997.274475,135.798401 999.413147,137.289719 1000.640869,142.858704   C1001.000000,145.700012 1001.000000,148.400024 1001.000000,151.550018  z"
   id="path22" />




<path
   d="M 375.17578 120.72461 C 365.26831 120.74844 356.23534 124.65423 348.23828 133.26367 C 340.21701 141.51846 337.97662 151.06087 338.87695 162.04297 C 340.25076 178.80157 358.0852 197.22079 379.19141 191.64453 C 384.91162 190.13325 388.20578 191.48715 391.82227 195.22852 C 394.90601 198.41872 398.27057 201.37495 401.76172 204.11719 C 404.17877 206.01578 407.45331 207.79544 409.88672 204.76172 C 412.16238 201.92464 411.22302 199.11668 408.16797 196.44141 C 403.76096 192.58212 399.63693 188.36083 395.29883 184.82812 C 399.55954 180.81245 403.77463 177.43407 406.14062 172.01953 C 411.03491 160.819 408.89591 150.00352 404.9707 139.33008 C 402.17883 131.7384 397.32019 125.55583 389.21289 123.02148 C 384.36329 121.5055 379.67918 120.71378 375.17578 120.72461 z M 377.64648 130.68555 C 382.62101 130.80638 387.39288 132.65223 391.78906 137.29297 C 397.59039 146.00665 400.58099 154.99341 398.00586 165.20312 C 396.58182 170.84903 392.32706 174.15001 388.01367 177.38672 C 386.83108 178.27411 386.38568 176.8066 385.80664 176.25195 C 383.04181 173.60347 380.28439 170.9382 377.68164 168.13281 C 375.61609 165.90646 373.34607 164.97353 370.75195 166.83008 C 368.13226 168.70496 368.65668 171.42969 369.53711 174.01172 C 370.60339 177.13852 373.70148 178.62988 375.49805 181.18164 C 370.32541 183.57352 363.80676 182.38899 357.83594 177.21484 C 351.23492 171.49463 346.95996 164.08704 348.20703 155.23047 C 349.67877 144.77841 355.49503 136.82297 365.75 133.0332 C 369.7863 131.54157 373.77741 130.59156 377.64648 130.68555 z "
   id="path32"
   style="fill:#eb2629;fill-opacity:1" />


<path
   d="M 517.49414 117.93555 C 515.98676 117.97743 514.63319 118.81236 513.80469 120.58398 C 512.60913 123.14051 512.04752 125.73035 511.94727 128.58398 C 511.29938 147.02568 513.32782 165.41133 513.00391 183.8418 C 512.99219 184.5076 512.84784 185.23485 513.06055 185.82812 C 513.70831 187.63472 515.34643 189.81778 516.87305 188.83594 C 521.2652 186.01122 525.17419 189.33389 529.29102 189.03125 C 533.80853 188.69917 538.32733 189.51802 542.66602 186.93945 C 558.65405 177.43761 558.32007 155.58681 546.13672 144.6543 C 537.66833 139.54396 529.46735 139.84142 520.89258 145.08594 C 521.56232 137.39058 520.05493 130.34327 521.81445 123.31445 C 522.35175 121.16829 521.30402 118.83258 519.03906 118.15234 C 518.51614 117.99529 517.9966 117.92159 517.49414 117.93555 z M 533.46289 149.99805 C 539.49579 149.70015 545.33435 155.6926 545.9707 163.08398 C 546.50018 169.23245 544.54449 174.4677 539.2207 177.90039 C 533.64917 181.49278 528.15826 180.16991 522.61133 177.34375 C 519.9455 175.9855 521.47504 173.9369 521 171.76367 C 521 168.80189 520.83594 166.29758 521.04297 163.82422 C 521.27069 161.10301 519.7099 157.79048 521.99023 155.76758 C 525.21033 152.91098 528.78918 150.22882 533.46289 149.99805 z "
   id="path38"
   style="fill:#eb2629;fill-opacity:1" />
<path
   d="M 782.93555 117.94727 C 781.10631 117.87557 780.01635 119.30921 779.01953 120.8418 C 777.96124 122.46891 777.9881 124.2439 777.99219 126.06055 C 778.01056 134.21665 777.99994 142.37315 778 150.5293 C 778 161.51514 778.04437 172.50093 777.97461 183.48633 C 777.95367 186.77028 778.96796 189.75797 782.55664 188.77734 C 785.8313 187.88257 788.54291 188.39853 791.67578 188.79688 C 795.69116 189.30748 799.94696 189.67984 804.00391 188.47656 C 812.11951 186.06944 819.28027 177.91869 819.96289 169.99609 C 820.91565 158.93787 818.83405 149.05923 808.0625 142.5625 C 800.19623 139.3643 793.14429 141.28336 786.1875 145.38477 C 786.09613 143.81152 786.08276 142.98416 785.99414 142.16406 C 785.29407 135.68993 786.99091 129.34528 787.03906 122.90625 C 787.05792 120.39597 786.14545 118.68861 783.76562 118.07422 C 783.47224 117.99847 783.19687 117.95751 782.93555 117.94727 z M 798.64062 150.07617 C 799.67149 150.03751 800.74687 150.16155 801.87891 150.49023 C 810.73395 153.06128 812.40442 161.59102 810.55469 169.80859 C 808.83185 177.46234 800.52936 181.79155 793.09766 179.60156 C 785.99915 177.50975 785.97754 177.51025 786.00977 169.85742 C 786.02863 165.36934 786.13562 160.88234 786.58008 156.21094 C 790.52753 153.45659 794.17354 150.24372 798.64062 150.07617 z "
   id="path40"
   style="fill:#eb2629;fill-opacity:1" />

<path
   d="M 849.20312 140.96289 C 844.0431 140.96994 838.97031 142.60379 835.63281 145.88672 C 827.99902 153.39557 825.93848 162.94986 827.20312 172.97266 C 828.47498 183.05214 836.38306 188.9969 846.5918 189 C 849.25323 189.00081 851.94824 189.26653 854.57031 188.94531 C 860.50983 188.21768 866.03406 186.30731 869.83203 181.33984 C 871.83032 178.7262 871.24652 176.31415 868.65039 174.06055 C 865.76337 171.55444 864.53943 174.04584 862.98047 175.54297 C 855.38269 182.83962 844.25519 182.38588 836.89258 174.07031 C 844.53351 170.26958 852.07935 166.55659 859.58789 162.76953 C 866.74811 159.15813 868.2406 152.80788 863.30273 145.79492 C 859.61072 142.57439 854.36315 140.95584 849.20312 140.96289 z M 849.71094 149.95312 C 851.25939 150.0048 852.87278 150.34061 854.51562 150.97852 C 855.97675 151.54585 857.513 151.80771 856.27344 154.20312 C 849.68866 157.99037 843.55396 161.87492 836.43555 163.83789 C 837.53701 154.84055 843.00098 149.72919 849.71094 149.95312 z "
   id="path44"
   style="fill:#eb2629;fill-opacity:1" />

<path
   d="M 484.29492 141.14258 C 478.89129 141.20697 473.10448 142.95745 468.81836 147.33398 C 461.2359 155.07637 460.50711 171.60135 463.26562 178.3418 C 466.97409 187.40355 480.61041 191.92362 492.00391 188.51758 C 496.41403 187.19917 500.61731 185.67624 503.69922 181.91211 C 505.55112 179.65025 505.6795 177.12402 504.34766 175.07617 C 502.85867 172.78671 500.35657 172.56728 498.01562 174.95117 C 492.30158 181.99351 476.82043 182.99062 471.24023 174.46875 C 471.72247 173.20378 472.99207 173.02414 473.98047 172.54102 C 480.53827 169.33566 487.2561 166.43449 493.66602 162.96094 C 497.74414 160.75098 501.32449 157.65356 500.98242 152.22656 C 500.66699 147.22209 497.72156 144.36197 493.20117 142.64453 C 490.6425 141.67241 487.5371 141.10394 484.29492 141.14258 z M 483.4043 150.26172 C 485.58716 150.30568 488.0477 150.88117 490.82422 151.9668 C 492.35422 152.94327 491.98276 153.3225 490.86719 154.06445 C 484.41376 158.35671 477.20361 161.13008 470.2207 164.88477 C 472.80629 154.79125 476.85569 150.12984 483.4043 150.26172 z "
   id="path48"
   style="fill:#eb2629;fill-opacity:1" />



<path
   d="M 942.40625 141.16016 C 934.45475 141.3128 927.45328 145.67968 923.03711 151.90039 C 916.83203 160.64107 918.19672 170.21309 920.59766 180.11133 C 922.47449 185.49574 926.37921 187.57152 931.18555 189.10547 C 937.1452 191.00757 942.36548 189.3885 947.65039 187.07031 C 949.09259 186.43773 950.46234 185.39436 951.91211 187.35547 C 953.73126 189.81634 956.14404 191.19022 959.14844 189.29297 C 962.71033 187.04372 960.35925 184.2012 959.36133 181.93164 C 955.52057 173.19675 955.15729 164.29056 956.85938 155.03711 C 957.60193 151.00006 959.68042 146.73424 953.68359 143.78711 C 949.82999 141.89326 946.02057 141.09077 942.40625 141.16016 z M 944.02539 150.01562 C 944.40289 150.02951 944.78009 150.06275 945.15625 150.11328 C 945.59613 150.17239 945.98523 150.60657 946.79297 150.97656 C 947.32831 157.89415 946.17664 164.71384 947.91016 171.51367 C 948.85223 175.20843 947.6344 178.21294 943.65039 179.77734 C 939.26099 181.50096 934.99628 182.11061 931.26758 178.67773 C 927.42114 175.13647 926.83356 165.8439 929.75195 159.72656 C 932.64559 153.66117 938.36295 149.80737 944.02539 150.01562 z "
   id="path56"
   style="fill:#eb2629;fill-opacity:1" />
<path
   d="M 753.95312 141.15234 C 747.90061 140.98149 741.70272 143.15903 737.12695 147.24023 C 729.33917 154.18631 728.35126 162.82651 728.90039 172.44531 C 729.44159 181.92635 732.98663 186.36348 742.14453 189.20117 C 747.91467 190.98914 752.62811 189.00978 757.60938 187.07812 C 759.0426 186.52235 760.40826 185.32898 761.88086 187.32227 C 763.68756 189.76764 766.08447 191.21727 769.11133 189.33008 C 772.65472 187.12088 770.42151 184.23573 769.39258 181.98438 C 765.1828 172.77295 765.1889 163.30638 767.00195 153.20312 C 769.0697 148.95442 767.76178 146.16386 764.31055 144.0918 C 761.16486 142.20322 757.58463 141.25486 753.95312 141.15234 z M 753.38867 149.625 C 755.97083 149.52874 756.94409 151.44536 757.05469 155.375 C 757.2066 160.77042 756.05206 166.25986 757.99219 171.99805 C 759.21252 177.82436 755.10626 179.56024 751.5 180.62891 C 747.56958 181.79363 742.78796 181.92537 740.41992 177.67773 C 734.28693 166.67699 739.2605 154.61946 750.24219 150.39258 C 751.48831 149.91293 752.52795 149.65709 753.38867 149.625 z "
   id="path58"
   style="fill:#eb2629;fill-opacity:1" />
<path
   d="M 626.72656 141.37305 C 621.65336 141.32973 616.53595 142.58461 613.38477 145.08008 C 602.4613 153.7305 599.95453 164.89223 603.37305 177.80469 C 605.12634 184.42722 609.49066 188.37408 616.81055 189.36719 C 622.05902 190.81937 626.51062 189.54224 630.72266 187.04492 C 632.78168 185.82414 634.66113 185.4407 636.29883 187.76562 C 637.94727 190.1058 640.49133 191.05203 642.73828 189.46289 C 645.0506 187.82756 644.25366 185.08473 643.27148 182.72266 C 638.89966 172.20874 638.55774 161.50561 641.75977 150.63477 C 642.41284 148.41754 641.19482 146.71947 639.79883 145.45312 C 636.827 142.75731 631.79977 141.41636 626.72656 141.37305 z M 626.95117 149.73047 C 629.41496 149.84289 630.76111 151.63371 631 155.25977 C 631.53198 162.11877 630.01013 168.5766 631.875 174.94336 C 632.7511 177.93413 629.46893 178.13788 628.00391 179.32812 C 624.79761 181.93309 620.55164 181.9297 617.24805 180.39453 C 613.85211 178.81642 612.08209 175.24165 611.95312 171.05469 C 611.6283 160.50552 615.18347 153.65712 622.89844 150.60156 C 624.48161 149.97454 625.83127 149.67937 626.95117 149.73047 z "
   id="path60"
   style="fill:#eb2629;fill-opacity:1" />
<path
   fill="#EB2629"
   opacity="1.000000"
   stroke="none"
   d=" M879.658203,182.141296   C870.470581,168.469330 879.506592,149.829895 889.422791,142.298111   C894.071228,138.767456 907.590027,140.800034 911.728760,145.259933   C913.810852,147.503555 913.696716,150.111526 911.960999,152.429504   C910.220764,154.753387 908.308472,154.376663 906.025452,152.638535   C899.594543,147.742737 892.848389,149.165909 889.262634,156.047058   C887.130737,160.138138 885.035889,163.957443 884.923279,168.748306   C884.816895,173.273743 886.093994,176.654831 890.117798,179.075668   C894.674377,181.816940 899.022034,181.598663 903.455078,179.016678   C904.581116,178.360840 905.701111,177.694809 906.822327,177.030670   C909.247803,175.593948 911.360840,175.674469 913.035706,178.228516   C914.765381,180.866165 914.185425,183.085068 911.883423,185.011734   C905.537415,190.323013 905.526489,190.319092 905.001587,198.436600   C904.672241,203.530167 901.335144,205.983917 896.905823,206.877411   C892.980042,207.669342 889.104553,206.447647 885.539001,204.765564   C882.872437,203.507599 882.146912,200.906998 883.367737,198.462646   C884.566650,196.061920 886.998413,196.824219 889.073486,197.550797   C889.679932,197.763138 890.235596,198.116745 890.823486,198.386307   C893.346069,199.543121 896.026489,199.601990 897.300903,196.987030   C898.575623,194.371552 896.433167,192.368561 894.338745,191.175232   C891.975708,189.828857 889.312134,189.009369 886.777893,187.964066   C883.939453,186.793289 881.981506,184.540527 879.658203,182.141296  z"
   id="path62" />
<path
   fill="#EB2629"
   opacity="1.000000"
   stroke="none"
   d=" M417.000000,160.981461   C417.087708,155.064346 416.728607,149.646576 417.918213,144.244675   C418.570068,141.284470 419.879974,139.816406 422.869568,140.016388   C425.620483,140.200424 427.183350,141.678787 426.970184,144.499664   C426.711121,147.927155 426.875519,151.319275 426.311096,154.811981   C425.156769,161.954590 426.448578,169.178085 427.626495,176.339096   C428.112305,179.292465 430.298096,179.477982 432.054657,179.850220   C435.819550,180.648102 439.470276,179.152161 443.140259,178.411362   C445.482147,177.938614 444.986481,176.047867 444.989960,174.476471   C445.010437,165.159363 444.983856,155.842163 445.010620,146.525101   C445.020233,143.172913 446.788940,140.246201 449.921082,140.310150   C453.086029,140.374741 455.546875,142.720459 455.042389,146.743835   C454.775146,148.875000 455.241058,151.113663 454.867462,153.213318   C453.019836,163.597870 453.954987,174.050522 454.400055,184.431351   C454.530304,187.470428 453.642303,189.336853 451.784363,190.462219   C449.942810,191.577637 447.739716,191.554230 445.833740,189.022507   C443.586975,186.038147 440.246399,188.831528 437.734161,189.288330   C425.575958,191.499008 418.145172,185.898041 417.811218,174.733078   C417.680176,170.352539 417.011505,165.916809 417.000000,160.981461  z"
   id="path64" />

<path
   fill="#EB2629"
   opacity="1.000000"
   stroke="none"
   d=" M696.274841,145.228577   C702.468506,139.178543 716.279541,139.312210 721.762634,145.304855   C723.815430,147.548431 723.716309,150.163589 721.923157,152.477936   C720.125671,154.797867 718.258850,154.264725 715.969543,152.602966   C709.415955,147.845688 702.968079,148.948639 699.246338,156.129776   C697.135437,160.202698 695.039124,164.064072 694.922058,168.853714   C694.810791,173.409393 696.202576,176.673645 700.218079,179.118454   C704.652649,181.818375 708.858093,181.391815 713.183960,179.264557   C714.781250,178.479080 716.319397,177.558640 717.826416,176.607712   C720.016663,175.225662 721.737854,176.405746 722.885864,177.928482   C724.178589,179.643173 724.870117,181.719193 722.834106,183.692398   C718.680664,187.717529 709.130554,191.642838 700.571960,189.289673   C691.422180,186.773941 686.774170,179.328979 686.080872,172.686539   C684.978271,162.121994 688.987854,153.197617 696.274841,145.228577  z"
   id="path68" />


<path
   fill="#EB2629"
   opacity="1.000000"
   stroke="none"
   d=" M573.102539,161.792221   C573.014648,169.543213 572.928040,176.872849 573.034607,184.199661   C573.085388,187.694305 572.196228,189.845551 568.160278,190.067871   C563.689087,190.314209 563.968445,187.560394 563.980286,184.580475   C564.027954,172.588486 563.903259,160.594757 564.082092,148.605255   C564.117615,146.223999 562.245789,142.625122 566.967102,141.975723   C571.448242,141.359375 572.714111,144.044067 573.272339,147.906311   C578.414551,143.278503 584.179443,140.742081 591.088440,140.950027   C594.753235,141.060333 597.142029,142.620499 597.568054,146.164139   C598.021118,149.932785 598.048096,153.781509 597.901672,157.581406   C597.826782,159.525558 596.347961,160.811584 594.273865,160.978378   C592.397339,161.129288 590.540344,161.144501 589.927551,158.734024   C589.691528,157.805588 589.144348,156.933395 589.031433,156.000198   C588.174438,148.917786 588.230896,148.987213 581.564209,152.118546   C577.430786,154.059998 575.077942,157.473114 573.102539,161.792221  z"
   id="path74" />





















<path
   fill="#EB2629"
   opacity="1.000000"
   stroke="none"
   d=" M677.148560,159.686005   C678.594299,166.432373 678.189941,166.964157 671.901794,166.993439   C665.585754,167.022842 659.268860,166.952698 652.953552,167.027039   C651.022461,167.049774 649.742920,166.824554 649.963562,164.391449   C650.144287,162.397537 649.723999,160.112701 652.678833,160.035812   C660.730957,159.826233 668.739197,157.994629 677.148560,159.686005  z"
   id="path118" />































</svg>